{
  "asset": {
    "generator": "Khronos glTF Blender I/O v1.0.5",
    "version": "2.0"
  },
  "scene": 0,
  "scenes": [
    {
      "name": "Scene",
      "nodes": [
        1,
        3,
        5,
        7
      ]
    }
  ],
  "nodes": [
    {
      "mesh": 0,
      "name": "coin_black",
      "translation": [
        64,
        0,
        0
      ]
    },
    {
      "children": [
        0
      ],
      "name": "Coin",
      "rotation": [
        0.7071068286895752,
        0,
        0,
        0.7071067094802856
      ],
      "scale": [
        0.004000000189989805,
        0.004000000189989805,
        0.004000000189989805
      ]
    },
    {
      "mesh": 1,
      "name": "coin_black.001",
      "translation": [
        30.000001907348633,
        0,
        0
      ]
    },
    {
      "children": [
        2
      ],
      "name": "CoinBonus",
      "rotation": [
        0.7071068286895752,
        0,
        0,
        0.7071067094802856
      ],
      "scale": [
        0.009999999776482582,
        0.009999999776482582,
        0.009999999776482582
      ]
    },
    {
      "mesh": 2,
      "name": "magnet",
      "rotation": [
        0,
        0.7071068286895752,
        0,
        0.7071067094802856
      ],
      "translation": [
        30.000001907348633,
        0,
        0
      ]
    },
    {
      "children": [
        4
      ],
      "name": "MagnetBonus",
      "rotation": [
        0.7071068286895752,
        0,
        0,
        0.7071067094802856
      ],
      "scale": [
        0.009999999776482582,
        0.009999999776482582,
        0.009999999776482582
      ]
    },
    {
      "mesh": 3,
      "name": "shield",
      "rotation": [
        0,
        -0.7071068286895752,
        0,
        0.7071067094802856
      ],
      "translation": [
        30.000001907348633,
        0,
        0
      ]
    },
    {
      "children": [
        6
      ],
      "name": "ShieldBonus",
      "rotation": [
        0.7071068286895752,
        0,
        0,
        0.7071067094802856
      ],
      "scale": [
        0.009999999776482582,
        0.009999999776482582,
        0.009999999776482582
      ]
    }
  ],
  "materials": [
    {
      "doubleSided": true,
      "name": "coins_C",
      "pbrMetallicRoughness": {
        "baseColorTexture": {
          "index": 0,
          "texCoord": 0
        },
        "metallicFactor": 0,
        "roughnessFactor": 0.5527864098548889
      }
    },
    {
      "doubleSided": true,
      "name": "coins_C.001",
      "pbrMetallicRoughness": {
        "baseColorTexture": {
          "index": 1,
          "texCoord": 0
        },
        "metallicFactor": 0,
        "roughnessFactor": 0.5527864098548889
      }
    },
    {
      "doubleSided": true,
      "name": "magnet_C",
      "pbrMetallicRoughness": {
        "baseColorTexture": {
          "index": 2,
          "texCoord": 0
        },
        "metallicFactor": 0,
        "roughnessFactor": 0.5527864098548889
      }
    },
    {
      "doubleSided": true,
      "name": "shield_C",
      "pbrMetallicRoughness": {
        "baseColorTexture": {
          "index": 3,
          "texCoord": 0
        },
        "metallicFactor": 0,
        "roughnessFactor": 0.5527864098548889
      }
    }
  ],
  "meshes": [
    {
      "name": "Scene.027",
      "primitives": [
        {
          "attributes": {
            "POSITION": 0,
            "NORMAL": 1,
            "TEXCOORD_0": 2
          },
          "indices": 3,
          "material": 0
        }
      ]
    },
    {
      "name": "Scene.028",
      "primitives": [
        {
          "attributes": {
            "POSITION": 4,
            "NORMAL": 5,
            "TEXCOORD_0": 6
          },
          "indices": 3,
          "material": 1
        }
      ]
    },
    {
      "name": "Scene.047",
      "primitives": [
        {
          "attributes": {
            "POSITION": 7,
            "NORMAL": 8,
            "TEXCOORD_0": 9
          },
          "indices": 10,
          "material": 2
        }
      ]
    },
    {
      "name": "Scene.052",
      "primitives": [
        {
          "attributes": {
            "POSITION": 11,
            "NORMAL": 12,
            "TEXCOORD_0": 13
          },
          "indices": 10,
          "material": 3
        }
      ]
    }
  ],
  "textures": [
    {
      "source": 0
    },
    {
      "source": 0
    },
    {
      "source": 1
    },
    {
      "source": 2
    }
  ],
  "images": [
    {
      "name": "DiffuseColor_Texture-DiffuseColor_Texture",
      "uri": "runner-game-models--bonus_img0.png"
    },
    {
      "name": "DiffuseColor_Texture-DiffuseColor_Texture",
      "uri": "runner-game-models--bonus_img1.png"
    },
    {
      "name": "DiffuseColor_Texture-DiffuseColor_Texture",
      "uri": "runner-game-models--bonus_img2.png"
    }
  ],
  "accessors": [
    {
      "bufferView": 0,
      "componentType": 5126,
      "count": 76,
      "max": [
        41.78001403808594,
        3.0120487213134766,
        41.145286560058594
      ],
      "min": [
        -41.78001403808594,
        -3.012049674987793,
        -41.14529037475586
      ],
      "type": "VEC3"
    },
    {
      "bufferView": 1,
      "componentType": 5126,
      "count": 76,
      "type": "VEC3"
    },
    {
      "bufferView": 2,
      "componentType": 5126,
      "count": 76,
      "type": "VEC2"
    },
    {
      "bufferView": 3,
      "componentType": 5123,
      "count": 204,
      "type": "SCALAR"
    },
    {
      "bufferView": 4,
      "componentType": 5126,
      "count": 76,
      "max": [
        41.78001403808594,
        3.0120487213134766,
        41.145286560058594
      ],
      "min": [
        -41.78001403808594,
        -3.012049674987793,
        -41.14529037475586
      ],
      "type": "VEC3"
    },
    {
      "bufferView": 5,
      "componentType": 5126,
      "count": 76,
      "type": "VEC3"
    },
    {
      "bufferView": 6,
      "componentType": 5126,
      "count": 76,
      "type": "VEC2"
    },
    {
      "bufferView": 7,
      "componentType": 5126,
      "count": 74,
      "max": [
        41.75613021850586,
        9.440786361694336,
        41.36707305908203
      ],
      "min": [
        -41.756126403808594,
        -9.440786361694336,
        -41.36707305908203
      ],
      "type": "VEC3"
    },
    {
      "bufferView": 8,
      "componentType": 5126,
      "count": 74,
      "type": "VEC3"
    },
    {
      "bufferView": 9,
      "componentType": 5126,
      "count": 74,
      "type": "VEC2"
    },
    {
      "bufferView": 10,
      "componentType": 5123,
      "count": 324,
      "type": "SCALAR"
    },
    {
      "bufferView": 11,
      "componentType": 5126,
      "count": 74,
      "max": [
        41.75613021850586,
        9.440786361694336,
        41.36707305908203
      ],
      "min": [
        -41.756126403808594,
        -9.440786361694336,
        -41.36707305908203
      ],
      "type": "VEC3"
    },
    {
      "bufferView": 12,
      "componentType": 5126,
      "count": 74,
      "type": "VEC3"
    },
    {
      "bufferView": 13,
      "componentType": 5126,
      "count": 74,
      "type": "VEC2"
    }
  ],
  "bufferViews": [
    {
      "buffer": 0,
      "byteLength": 912,
      "byteOffset": 0
    },
    {
      "buffer": 0,
      "byteLength": 912,
      "byteOffset": 912
    },
    {
      "buffer": 0,
      "byteLength": 608,
      "byteOffset": 1824
    },
    {
      "buffer": 0,
      "byteLength": 408,
      "byteOffset": 2432
    },
    {
      "buffer": 0,
      "byteLength": 912,
      "byteOffset": 2840
    },
    {
      "buffer": 0,
      "byteLength": 912,
      "byteOffset": 3752
    },
    {
      "buffer": 0,
      "byteLength": 608,
      "byteOffset": 4664
    },
    {
      "buffer": 0,
      "byteLength": 888,
      "byteOffset": 5272
    },
    {
      "buffer": 0,
      "byteLength": 888,
      "byteOffset": 6160
    },
    {
      "buffer": 0,
      "byteLength": 592,
      "byteOffset": 7048
    },
    {
      "buffer": 0,
      "byteLength": 648,
      "byteOffset": 7640
    },
    {
      "buffer": 0,
      "byteLength": 888,
      "byteOffset": 8288
    },
    {
      "buffer": 0,
      "byteLength": 888,
      "byteOffset": 9176
    },
    {
      "buffer": 0,
      "byteLength": 592,
      "byteOffset": 10064
    }
  ],
  "buffers": [
    {
      "uri": "runner-game-models--bonus_data.bin",
      "byteLength": 10656
    }
  ]
}